<svg width="20" height="21" viewBox="0 0 20 21" fill="none" xmlns="http://www.w3.org/2000/svg">
<path fill-rule="evenodd" clip-rule="evenodd" d="M15.8395 4.23051C14.8632 3.2542 13.2803 3.2542 12.304 4.23051C11.3277 5.20682 11.3277 6.78973 12.304 7.76604C13.2803 8.74235 14.8632 8.74235 15.8395 7.76604C16.8158 6.78973 16.8158 5.20682 15.8395 4.23051ZM13.7182 5.64472C13.9135 5.44946 14.2301 5.44946 14.4253 5.64472C14.6206 5.83998 14.6206 6.15657 14.4253 6.35183C14.2301 6.54709 13.9135 6.54709 13.7182 6.35183C13.523 6.15657 13.523 5.83998 13.7182 5.64472Z" fill="#0048AD"/>
<path fill-rule="evenodd" clip-rule="evenodd" d="M19.3748 0.694896C19.2349 0.549455 19.0546 0.450985 18.8603 0.409863C17.9181 0.0561878 16.3268 -0.202861 13.9264 0.735905C12.2392 1.39574 10.1588 2.64402 7.60704 4.85328C7.30208 4.7621 6.97844 4.72524 6.66208 4.7259C6.06763 4.72714 5.40256 4.85931 4.70792 5.12277C3.3144 5.65132 1.73167 6.73365 0.222915 8.53901C-0.109091 8.93629 -0.0829654 9.52128 0.283132 9.88738C1.11192 10.7162 2.05842 10.8407 2.81821 10.774C3.16782 10.7432 3.49305 10.6711 3.72891 10.6188L3.74625 10.615C3.88966 10.5832 3.98692 10.5629 4.05471 10.5505C4.0789 10.5541 4.10333 10.5567 4.12797 10.5585C6.36681 10.7184 7.5425 11.1365 8.23785 11.8319C8.93321 12.5272 9.35137 13.7029 9.51127 15.9418C9.51306 15.9668 9.51577 15.9916 9.51938 16.0162C9.507 16.0839 9.48673 16.181 9.45508 16.3238L9.45123 16.3412C9.39894 16.577 9.32683 16.9022 9.2961 17.2519C9.22934 18.0116 9.3539 18.9581 10.1827 19.7869C10.5488 20.153 11.1338 20.1792 11.531 19.8471C13.3364 18.3384 14.4187 16.7557 14.9473 15.3621C15.2108 14.6675 15.3429 14.0024 15.3442 13.408C15.3448 13.0914 15.3079 12.7676 15.2166 12.4625C17.4258 9.91083 18.674 7.83046 19.3338 6.14334C20.2726 3.74297 20.0136 2.1516 19.6599 1.20948C19.6188 1.01513 19.5203 0.834887 19.3748 0.694896ZM5.12552 7.16631C5.05361 7.23785 4.98138 7.31008 4.90883 7.383L3.71161 8.58022C3.57879 8.6032 3.4554 8.63072 3.35531 8.65305L3.31354 8.66235C3.09915 8.70986 2.91592 8.74946 2.73783 8.77156C3.63327 7.91896 4.49034 7.38087 5.21981 7.07203L5.12552 7.16631ZM6.32974 8.79052L6.30201 8.81841C7.6787 9.089 8.80255 9.56816 9.65207 10.4177C10.5016 11.2672 10.9807 12.391 11.2513 13.7677C14.9993 10.0432 16.7268 7.31835 17.4712 5.41488C18.103 3.79944 18.0286 2.77455 17.8768 2.19296C17.2952 2.0411 16.2703 1.96674 14.6549 2.59852C12.7908 3.32755 10.1389 4.99932 6.53196 8.5883L6.32974 8.79052ZM12.998 14.8503L11.4898 16.3584C11.4669 16.4913 11.4393 16.6147 11.417 16.7148L11.4077 16.7565C11.3602 16.9709 11.3206 17.1541 11.2985 17.3322C12.1511 16.4368 12.6892 15.5797 12.998 14.8503Z" fill="#0048AD"/>
<path fill-rule="evenodd" clip-rule="evenodd" d="M6.8006 11.846C7.0761 11.9283 7.42209 12.0767 7.7077 12.3623C7.99331 12.648 8.14171 12.9939 8.22401 13.2694C8.30873 13.553 8.34557 13.8373 8.36169 14.0713C8.37808 14.3092 8.37482 14.5231 8.36788 14.6763C8.36437 14.7538 8.35981 14.818 8.35592 14.8647C8.35397 14.8881 8.35218 14.9072 8.35076 14.9216L8.34891 14.9396L8.34824 14.9458L8.34797 14.9482L8.34786 14.9492C8.34783 14.9494 8.34775 14.9501 7.35415 14.8372L8.34786 14.9492C8.31273 15.2584 8.13552 15.5346 7.86864 15.6947C7.15779 16.1212 6.25362 16.4149 5.58433 16.5975C5.2387 16.6917 4.93306 16.7623 4.71315 16.8094C4.60292 16.833 4.51352 16.8509 4.45057 16.8631C4.41908 16.8692 4.39416 16.8739 4.3765 16.8771L4.35553 16.8809L4.34929 16.8821L4.34621 16.8826C4.34607 16.8826 4.34595 16.8827 4.17216 15.8979C3.19158 15.7018 3.1916 15.7017 3.19162 15.7016L3.1922 15.6987L3.1935 15.6923L3.19815 15.6695C3.20215 15.6501 3.20794 15.6223 3.21542 15.5871C3.23038 15.5167 3.25217 15.4165 3.28012 15.2941C3.33585 15.05 3.41685 14.7143 3.51771 14.3497C3.618 13.9871 3.74125 13.5837 3.88281 13.2083C4.01836 12.8488 4.19475 12.4487 4.41909 12.1347C4.58375 11.9041 4.83846 11.7543 5.11995 11.7223L5.23282 12.7159C5.11995 11.7223 5.11973 11.7223 5.11995 11.7223L5.12186 11.7221L5.12426 11.7218L5.13048 11.7211L5.14845 11.7193C5.16283 11.7179 5.18198 11.7161 5.20538 11.7141C5.25207 11.7102 5.31629 11.7057 5.39377 11.7022C5.54691 11.6952 5.76084 11.692 5.99876 11.7084C6.2327 11.7245 6.517 11.7613 6.8006 11.846ZM5.83857 13.7022C5.81153 13.7661 5.78332 13.8367 5.7542 13.9139C5.68236 14.1045 5.61356 14.3121 5.54947 14.5232C5.83245 14.4332 6.11307 14.3314 6.36715 14.2198L6.36642 14.2088C6.35637 14.063 6.33594 13.9365 6.3077 13.8419C6.29995 13.816 6.29287 13.7967 6.28721 13.7828C6.27337 13.7772 6.25404 13.7701 6.22812 13.7623C6.13359 13.7341 6.00706 13.7137 5.86129 13.7036L5.83857 13.7022Z" fill="#0048AD"/>
<path d="M4.17216 15.8979L4.34621 16.8826C4.0209 16.94 3.68798 16.8331 3.45707 16.5969C3.22616 16.3607 3.12684 16.0255 3.19162 15.7016L4.17216 15.8979Z" fill="#0048AD"/>
</svg>
